<svg width="550" height="500" xmlns="http://www.w3.org/2000/svg">

 <g>
  <title>Layer 1</title>
  <g transform="rotate(-99 421.26 250.722)" id="svg_1">
   <path fill="#fff" transform="rotate(10 238 -11)" id="svg_2" d="m463.923,343.706c-8.098,0 -16.195,-3.092 -22.369,-9.263l-194.284,-194.286c-12.359,-12.359 -12.359,-32.397 0,-44.751c12.354,-12.354 32.388,-12.354 44.748,0l171.905,171.915l171.906,-171.909c12.359,-12.354 32.391,-12.354 44.744,0c12.365,12.354 12.365,32.392 0,44.751l-194.281,194.286c-6.177,6.172 -14.274,9.257 -22.369,9.257z"/>
  </g>
  <g id="svg_3"/>
  <g id="svg_4"/>
  <g id="svg_5"/>
  <g id="svg_6"/>
  <g id="svg_7"/>
  <g id="svg_8"/>
  <g id="svg_9"/>
  <g id="svg_10"/>
  <g id="svg_11"/>
  <g id="svg_12"/>
  <g id="svg_13"/>
  <g id="svg_14"/>
  <g id="svg_15"/>
  <g id="svg_16"/>
  <g id="svg_17"/>
  <g transform="rotate(80 129.26 249.722)" id="svg_19">
   <path fill="#fff" transform="rotate(10 -54 -12)" id="svg_18" d="m171.923,342.706c-8.098,0 -16.195,-3.092 -22.369,-9.263l-194.284,-194.286c-12.359,-12.359 -12.359,-32.397 0,-44.751c12.354,-12.354 32.388,-12.354 44.748,0l171.905,171.915l171.906,-171.909c12.359,-12.354 32.391,-12.354 44.744,0c12.365,12.354 12.365,32.392 0,44.751l-194.281,194.286c-6.177,6.172 -14.274,9.257 -22.369,9.257z"/>
  </g>
 </g>
</svg>